<svg width="155" height="76" viewBox="0 0 155 76" fill="none" xmlns="http://www.w3.org/2000/svg">
<g clip-path="url(#clip0_6574_2992)">
<path d="M40.5737 71.7959H0.164917V75.9174H40.5737V71.7959Z" fill="#C30058"/>
<path d="M2.38929 17.7242L0.0362549 14.3396L20.4781 0.125488L40.704 14.3462L38.3311 17.7176L20.4649 5.15369L2.38929 17.7242Z" fill="#C30058"/>
<path d="M11.9004 25.6323H20.892C24.1883 25.6323 28.3353 28.4794 28.3353 34.4721C28.3353 38.5672 26.6864 42.4628 22.5904 43.8608L29.4846 58.1442L26.4869 59.5933L18.9941 44.1114H15.2477V58.9454H11.9004V25.6323ZM15.2477 41.1159H20.1434C23.0406 41.1159 24.8396 38.9678 24.8396 34.4737C24.8396 30.128 22.7421 28.6311 19.3453 28.6311H15.2494V41.1159H15.2477Z" fill="#73C132"/>
<path d="M44.1189 25.6323H60.3543V28.6295H47.4662V39.6173H58.1068V42.6144H47.4662V55.9499H60.3543V58.947H44.1189V25.6323Z" fill="#73C132"/>
<path d="M88.078 28.6295H75.3894V25.6323H93.1237L79.0369 55.9482H93.5228V58.9454H73.9417L88.078 28.6295Z" fill="#73C132"/>
<path d="M120.547 28.6295H107.859V25.6323H125.593L111.506 55.9482H125.992V58.9454H106.409L120.547 28.6295Z" fill="#73C132"/>
<path d="M146.971 28.6295H142.475V25.6323H154.863V28.6295H150.317V55.9482H154.863V58.9454H142.475V55.9482H146.971V28.6295Z" fill="#73C132"/>
</g>
<defs>
<clipPath id="clip0_6574_2992">
<rect width="155" height="76" fill="white"/>
</clipPath>
</defs>
</svg>
